<svg preserveAspectRatio="none" width="100%" height="100%" overflow="visible" style="display: block;" viewBox="0 0 15 11" fill="none" xmlns="http://www.w3.org/2000/svg">
<g id="fullscreen button">
<path id="Vector" d="M13.653 0.0079999C14.0224 0.045873 14.3646 0.219396 14.6134 0.494999C14.8622 0.770602 15 1.12869 15 1.5V9.5L14.992 9.653C14.957 9.99629 14.8047 10.317 14.5608 10.5611C14.3169 10.8052 13.9963 10.9577 13.653 10.993L13.5 11H1.5L1.347 10.992C1.00371 10.957 0.68298 10.8047 0.438885 10.5608C0.194791 10.3169 0.0422581 9.99627 0.007 9.653L0 9.5V1.5C4.37148e-05 1.12869 0.1378 0.770602 0.386619 0.494999C0.635437 0.219396 0.977632 0.045873 1.347 0.0079999L1.5 0H13.5L13.653 0.0079999ZM1.5 0.984C1.36315 0.984 1.2319 1.03836 1.13513 1.13513C1.03836 1.2319 0.984 1.36315 0.984 1.5V9.5C0.984 9.785 1.215 10.016 1.5 10.016H13.5C13.6369 10.016 13.7681 9.96164 13.8649 9.86487C13.9616 9.7681 14.016 9.63685 14.016 9.5V1.5C14.016 1.36315 13.9616 1.2319 13.8649 1.13513C13.7681 1.03836 13.6369 0.984 13.5 0.984H1.5ZM11.5 2C11.6326 2 11.7598 2.05268 11.8536 2.14645C11.9473 2.24021 12 2.36739 12 2.5V8.5C12 8.63261 11.9473 8.75979 11.8536 8.85355C11.7598 8.94732 11.6326 9 11.5 9C11.3674 9 11.2402 8.94732 11.1464 8.85355C11.0527 8.75979 11 8.63261 11 8.5V2.5C11 2.36739 11.0527 2.24021 11.1464 2.14645C11.2402 2.05268 11.3674 2 11.5 2Z" fill="var(--fill-0, #7B8570)"/>
<g id="Mask group">
<mask id="mask0_0_11" style="mask-type:luminance" maskUnits="userSpaceOnUse" x="0" y="0" width="15" height="11">
<g id="Group">
<path id="Vector_2" d="M13.653 0.0079999C14.0224 0.045873 14.3646 0.219396 14.6134 0.494999C14.8622 0.770602 15 1.12869 15 1.5V9.5L14.992 9.653C14.957 9.99629 14.8047 10.317 14.5608 10.5611C14.3169 10.8052 13.9963 10.9577 13.653 10.993L13.5 11H1.5L1.347 10.992C1.00371 10.957 0.68298 10.8047 0.438885 10.5608C0.194791 10.3169 0.0422581 9.99627 0.007 9.653L0 9.5V1.5C4.37148e-05 1.12869 0.1378 0.770602 0.386619 0.494999C0.635437 0.219396 0.977632 0.045873 1.347 0.0079999L1.5 0H13.5L13.653 0.0079999ZM1.5 0.984C1.36315 0.984 1.2319 1.03836 1.13513 1.13513C1.03836 1.2319 0.984 1.36315 0.984 1.5V9.5C0.984 9.785 1.215 10.016 1.5 10.016H13.5C13.6369 10.016 13.7681 9.96164 13.8649 9.86487C13.9616 9.7681 14.016 9.63685 14.016 9.5V1.5C14.016 1.36315 13.9616 1.2319 13.8649 1.13513C13.7681 1.03836 13.6369 0.984 13.5 0.984H1.5ZM11.5 2C11.6326 2 11.7598 2.05268 11.8536 2.14645C11.9473 2.24021 12 2.36739 12 2.5V8.5C12 8.63261 11.9473 8.75979 11.8536 8.85355C11.7598 8.94732 11.6326 9 11.5 9C11.3674 9 11.2402 8.94732 11.1464 8.85355C11.0527 8.75979 11 8.63261 11 8.5V2.5C11 2.36739 11.0527 2.24021 11.1464 2.14645C11.2402 2.05268 11.3674 2 11.5 2Z" fill="var(--fill-0, #7B8570)"/>
</g>
</mask>
<g mask="url(#mask0_0_11)">
<path id="Vector_3" d="M13.6531 0.00988269L13.7791 -1.23012L13.7491 -1.23412L13.7171 -1.23512L13.6531 0.00988269ZM15.0001 9.50188L16.2451 9.56488L16.2471 9.53388V9.50188H15.0001ZM14.9921 9.65488L16.2321 9.78088L16.2361 9.75088L16.2371 9.71888L14.9921 9.65488ZM13.6531 10.9949L13.7171 12.2389L13.7481 12.2379L13.7791 12.2349L13.6531 10.9949ZM13.5001 11.0019V12.2489H13.5321L13.5631 12.2469L13.5001 11.0019ZM1.50005 11.0019L1.43705 12.2469L1.46805 12.2489H1.50005V11.0019ZM1.34705 10.9939L1.22105 12.2339L1.25105 12.2379L1.28305 12.2389L1.34705 10.9939ZM0.00705171 9.65488L-1.23695 9.71888L-1.23595 9.74988L-1.23295 9.78088L0.00705171 9.65488ZM5.17368e-05 9.50188H-1.24695V9.53388L-1.24495 9.56488L5.17368e-05 9.50188ZM1.34705 0.00988269L1.28305 -1.23512L1.25205 -1.23412L1.22105 -1.23112L1.34705 0.00988269ZM1.50005 0.00188279V-1.24512H1.46805L1.43705 -1.24312L1.50005 0.00188279ZM13.5001 0.00188279L13.5631 -1.24312L13.5321 -1.24512H13.5001V0.00188279ZM13.6531 0.00988269L13.5271 1.24988C13.5892 1.25655 13.6467 1.28599 13.6884 1.33252C13.7301 1.37905 13.7532 1.43938 13.7531 1.50188H16.2471C16.2471 0.821601 15.9947 0.165499 15.5388 -0.339387C15.0829 -0.844273 14.4558 -1.16102 13.7791 -1.23012L13.6531 0.00988269ZM15.0001 1.50188H13.7531V9.50188H16.2471V1.50188H15.0001ZM15.0001 9.50188L13.7551 9.43888L13.7471 9.59188L14.9921 9.65488L16.2371 9.71888L16.2451 9.56488L15.0001 9.50188ZM14.9921 9.65488L13.7521 9.52888C13.7458 9.58641 13.7201 9.64007 13.6792 9.68098C13.6382 9.7219 13.5846 9.74762 13.5271 9.75388L13.6531 10.9939L13.7791 12.2349C14.4077 12.1702 14.9948 11.89 15.4418 11.4433C15.8887 10.9965 16.1671 10.4095 16.2321 9.78088L14.9921 9.65488ZM13.6531 10.9949L13.5901 9.74888L13.4371 9.75688L13.5001 11.0019L13.5631 12.2469L13.7171 12.2389L13.6531 10.9949ZM13.5001 11.0019V9.75488H1.50005V12.2489H13.5001V11.0019ZM1.50005 11.0019L1.56305 9.75688L1.41005 9.74888L1.34705 10.9939L1.28305 12.2389L1.43705 12.2469L1.50005 11.0019ZM1.34705 10.9939L1.47305 9.75388C1.41553 9.74762 1.36187 9.7219 1.32095 9.68098C1.28004 9.64007 1.25432 9.58641 1.24805 9.52888L0.00805175 9.65488L-1.23195 9.78088C-1.16727 10.4095 -0.888079 10.9967 -0.441328 11.4436C0.00542232 11.8905 0.592467 12.169 1.22105 12.2339L1.34705 10.9939ZM0.00705171 9.65488L1.25305 9.59188L1.24505 9.43888L5.17368e-05 9.50188L-1.24495 9.56488L-1.23695 9.71888L0.00705171 9.65488ZM5.17368e-05 9.50188H1.24705V1.50188H-1.24695V9.50188H5.17368e-05ZM5.17368e-05 1.50188H1.24705C1.24705 1.37188 1.34705 1.26288 1.47305 1.24988L1.34705 0.00988269L1.22005 -1.23012C0.54364 -1.16081 -0.0830308 -0.8431 -0.538732 -0.338449C-0.994433 0.166202 -1.24678 0.82193 -1.24695 1.50188H5.17368e-05ZM1.34705 0.00988269L1.41005 1.25488L1.56305 1.24688L1.50005 0.00188279L1.43705 -1.24312L1.28305 -1.23512L1.34705 0.00988269ZM1.50005 0.00188279V1.24888H13.5001V-1.24512H1.50005V0.00188279ZM13.5001 0.00188279L13.4371 1.24688L13.5901 1.25488L13.6531 0.00988269L13.7171 -1.23512L13.5631 -1.24312L13.5001 0.00188279ZM1.50005 0.985883V-0.260117C0.527052 -0.260117 -0.261948 0.528883 -0.261948 1.50188H2.23005C2.23018 1.59792 2.21137 1.69303 2.17468 1.78178C2.13799 1.87053 2.08415 1.95117 2.01624 2.01907C1.94833 2.08698 1.8677 2.14082 1.77895 2.17751C1.6902 2.2142 1.59508 2.23301 1.49905 2.23288L1.50005 0.985883ZM0.984052 1.50188H-0.261948V9.50188H2.23005V1.50188H0.984052ZM0.984052 9.50188H-0.261948C-0.261948 10.4749 0.527052 11.2639 1.50005 11.2639V8.77188C1.59609 8.77175 1.6912 8.79057 1.77995 8.82726C1.8687 8.86395 1.94933 8.91779 2.01724 8.98569C2.08515 9.0536 2.13899 9.13424 2.17568 9.22299C2.21237 9.31173 2.23118 9.40685 2.23105 9.50288L0.984052 9.50188ZM1.50005 10.0179V11.2639H13.5001V8.77188H1.50005V10.0179ZM13.5001 10.0179V11.2639C14.4731 11.2639 15.2621 10.4749 15.2621 9.50188H12.7701C12.7699 9.40585 12.7887 9.31073 12.8254 9.22198C12.8621 9.13324 12.916 9.0526 12.9839 8.98469C13.0518 8.91679 13.1324 8.86295 13.2212 8.82626C13.3099 8.78957 13.405 8.77075 13.5011 8.77088L13.5001 10.0179ZM14.0161 9.50188H15.2621V1.50188H12.7701V9.50188H14.0161ZM14.0161 1.50188H15.2621C15.2621 0.528883 14.4731 -0.260117 13.5001 -0.260117V2.23188C13.404 2.23201 13.3089 2.2132 13.2202 2.17651C13.1314 2.13982 13.0508 2.08598 12.9829 2.01807C12.915 1.95017 12.8611 1.86953 12.8244 1.78078C12.7877 1.69203 12.7689 1.59692 12.7691 1.50088L14.0161 1.50188ZM13.5001 0.985883V-0.260117H1.50005V2.23188H13.5001V0.985883ZM11.5001 2.00188V3.24888C11.3019 3.24888 11.1119 3.17018 10.9718 3.03009C10.8318 2.89 10.7531 2.7 10.7531 2.50188H13.2471C13.2471 1.53688 12.4651 0.754883 11.5001 0.754883V2.00188ZM12.0001 2.50188H10.7531V8.50188H13.2471V2.50188H12.0001ZM12.0001 8.50188H10.7531C10.7531 8.08988 11.0881 7.75488 11.5001 7.75488V10.2489C12.4651 10.2489 13.2471 9.46688 13.2471 8.50188H12.0001ZM11.5001 9.00188V7.75488C11.9121 7.75488 12.2471 8.08988 12.2471 8.50188H9.75305C9.75305 9.46688 10.5351 10.2489 11.5001 10.2489V9.00188ZM11.0001 8.50188H12.2471V2.50188H9.75305V8.50188H11.0001ZM11.0001 2.50188H12.2471C12.2471 2.7 12.1683 2.89 12.0283 3.03009C11.8882 3.17018 11.6982 3.24888 11.5001 3.24888V0.754883C10.5351 0.754883 9.75305 1.53688 9.75305 2.50188H11.0001Z" fill="var(--fill-0, #7B8570)"/>
</g>
</g>
</g>
</svg>
