<svg preserveAspectRatio="none" width="100%" height="100%" overflow="visible" style="display: block;" viewBox="0 0 8 8" fill="none" xmlns="http://www.w3.org/2000/svg">
<g id="ic:outline-lightbulb">
<path id="Vector" d="M3 7C3 7.18333 3.15 7.33333 3.33333 7.33333H4.66667C4.85 7.33333 5 7.18333 5 7V6.66667H3V7ZM4 0.666667C2.71333 0.666667 1.66667 1.71333 1.66667 3C1.66667 3.79333 2.06333 4.49 2.66667 4.91333V5.66667C2.66667 5.85 2.81667 6 3 6H5C5.18333 6 5.33333 5.85 5.33333 5.66667V4.91333C5.93667 4.49 6.33333 3.79333 6.33333 3C6.33333 1.71333 5.28667 0.666667 4 0.666667ZM4.95 4.36667L4.66667 4.56667V5.33333H3.33333V4.56667L3.05 4.36667C2.82922 4.21351 2.64875 4.00924 2.52396 3.77127C2.39918 3.53331 2.33378 3.2687 2.33333 3C2.33333 2.08 3.08 1.33333 4 1.33333C4.92 1.33333 5.66667 2.08 5.66667 3C5.66667 3.54333 5.4 4.05333 4.95 4.36667Z" fill="var(--fill-0, #5E6955)" fill-opacity="0.5"/>
</g>
</svg>
