<svg preserveAspectRatio="none" width="100%" height="100%" overflow="visible" style="display: block;" viewBox="0 0 12 12" fill="none" xmlns="http://www.w3.org/2000/svg">
<g id="scroll up button">
<circle id="Ellipse 630" cx="6" cy="6" r="5.7" fill="var(--fill-0, white)" stroke="var(--stroke-0, #7B8570)" stroke-width="0.6"/>
<g id="Vector">
<mask id="path-2-inside-1_0_4" fill="white">
<path d="M3.49036 7L3 6.55382L5.67247 4.12361C5.7153 4.08444 5.76622 4.05335 5.82231 4.03214C5.8784 4.01092 5.93855 4 5.99931 4C6.06006 4 6.12021 4.01092 6.1763 4.03214C6.23239 4.05335 6.28331 4.08444 6.32614 4.12361L9 6.55382L8.50964 6.99958L6 4.71866L3.49036 7Z"/>
</mask>
<path d="M3.49036 7L3 6.55382L5.67247 4.12361C5.7153 4.08444 5.76622 4.05335 5.82231 4.03214C5.8784 4.01092 5.93855 4 5.99931 4C6.06006 4 6.12021 4.01092 6.1763 4.03214C6.23239 4.05335 6.28331 4.08444 6.32614 4.12361L9 6.55382L8.50964 6.99958L6 4.71866L3.49036 7Z" fill="var(--fill-0, black)"/>
<path d="M3.49036 7L2.14437 8.47929L3.48973 9.70342L4.83566 8.47992L3.49036 7ZM3 6.55382L1.65445 5.07413L0.0277328 6.55338L1.65401 8.03311L3 6.55382ZM5.67247 4.12361L7.01803 5.60331L7.02242 5.5993L5.67247 4.12361ZM6.32614 4.12361L4.97618 5.5993L4.98097 5.60365L6.32614 4.12361ZM9 6.55382L10.3453 8.03375L11.9735 6.5537L10.3452 5.07379L9 6.55382ZM8.50964 6.99958L7.16447 8.47963L8.50976 9.70231L9.85494 8.4795L8.50964 6.99958ZM6 4.71866L7.34516 3.23861L5.99988 2.01592L4.6547 3.23873L6 4.71866ZM3.49036 7L4.83636 5.52071L4.34599 5.07453L3 6.55382L1.65401 8.03311L2.14437 8.47929L3.49036 7ZM3 6.55382L4.34555 8.03351L7.01803 5.6033L5.67247 4.12361L4.32692 2.64392L1.65445 5.07413L3 6.55382ZM5.67247 4.12361L7.02242 5.5993C6.87185 5.73704 6.70295 5.83733 6.52983 5.90281L5.82231 4.03214L5.11479 2.16146C4.82949 2.26937 4.55875 2.43184 4.32253 2.64793L5.67247 4.12361ZM5.82231 4.03214L6.52983 5.90281C6.35684 5.96824 6.17705 6 5.99931 6V4V2C5.70006 2 5.39997 2.05361 5.11479 2.16146L5.82231 4.03214ZM5.99931 4V6C5.82157 6 5.64177 5.96824 5.46878 5.90281L6.1763 4.03214L6.88382 2.16146C6.59865 2.05361 6.29855 2 5.99931 2V4ZM6.1763 4.03214L5.46878 5.90281C5.29566 5.83733 5.12677 5.73704 4.97619 5.5993L6.32614 4.12361L7.67609 2.64793C7.43986 2.43184 7.16912 2.26937 6.88382 2.16146L6.1763 4.03214ZM6.32614 4.12361L4.98097 5.60365L7.65483 8.03386L9 6.55382L10.3452 5.07379L7.67131 2.64357L6.32614 4.12361ZM9 6.55382L7.6547 5.0739L7.16434 5.51966L8.50964 6.99958L9.85494 8.4795L10.3453 8.03375L9 6.55382ZM8.50964 6.99958L9.8548 5.51953L7.34516 3.23861L6 4.71866L4.65484 6.1987L7.16447 8.47963L8.50964 6.99958ZM6 4.71866L4.6547 3.23873L2.14506 5.52008L3.49036 7L4.83566 8.47992L7.3453 6.19858L6 4.71866Z" fill="var(--stroke-0, #7B8570)" mask="url(#path-2-inside-1_0_4)"/>
</g>
</g>
</svg>
